<?xml version="1.0" encoding="utf-8"?>
<!-- Generator: Adobe Illustrator 26.0.3, SVG Export Plug-In . SVG Version: 6.00 Build 0)  -->
<svg version="1.1" xmlns="http://www.w3.org/2000/svg" xmlns:xlink="http://www.w3.org/1999/xlink" x="0px" y="0px"
	 viewBox="0 0 512 512" style="enable-background:new 0 0 512 512;" xml:space="preserve">
<style type="text/css">
	.st0{fill:#6131FA;}
	.st1{fill:#FFFFFF;}
	.st2{fill:#21024E;}
	.st3{fill:url(#SVGID_1_);}
	.st4{fill:#23A9FF;}
	.st5{fill:url(#SVGID_00000147214244970379719100000010334124743305095573_);}
	.st6{fill:#03F3C2;}
	.st7{fill:#54FFEA;}
	.st8{fill:#00EFD5;}
	.st9{fill:#78D5FE;}
	.st10{fill:url(#SVGID_00000059293304026769557810000004722589063267111059_);}
	.st11{fill:url(#SVGID_00000088103957994428172510000010135924855116796336_);}
</style>
<g id="BG">
</g>
<g id="Display">
</g>
<g id="Numbers">
</g>
<g id="Fonts">
	<path class="st0" d="M409.26,509.68H102.74c-55.46,0-100.42-44.96-100.42-100.42V102.74C2.32,47.28,47.28,2.32,102.74,2.32h306.51
		c55.46,0,100.42,44.96,100.42,100.42v306.51C509.68,464.72,464.72,509.68,409.26,509.68z"/>
	<g>
		<path class="st1" d="M256.92,437.64h-62.89c-2.43,0-4.4-1.97-4.4-4.4V207.02c0-71.69,57.13-130.29,128.25-132.66
			c2.46-0.08,4.49,1.95,4.49,4.41v62.96c0,2.28-1.74,4.22-4.02,4.37c-31.8,2.08-57.04,28.61-57.04,60.92v226.22
			C261.31,435.67,259.35,437.64,256.92,437.64z"/>
		<circle class="st4" cx="268.14" cy="326.38" r="54.23"/>
	</g>
</g>
</svg>
