<?xml version="1.0" encoding="utf-8"?>
<!-- Generator: Adobe Illustrator 26.0.3, SVG Export Plug-In . SVG Version: 6.00 Build 0)  -->
<svg version="1.1" xmlns="http://www.w3.org/2000/svg" xmlns:xlink="http://www.w3.org/1999/xlink" x="0px" y="0px"
	 viewBox="0 0 500 182.46" style="enable-background:new 0 0 500 182.46;" xml:space="preserve">
<style type="text/css">
	.st0{fill:#FFFFFF;}
	.st1{fill:#21024E;}
	.st2{fill:#6131FA;}
	.st3{fill:url(#SVGID_1_);}
	.st4{fill:#23A9FF;}
	.st5{fill:url(#SVGID_00000078763988905317972490000013481582694306873751_);}
	.st6{fill:#03F3C2;}
	.st7{fill:#54FFEA;}
	.st8{fill:#00EFD5;}
	.st9{fill:#78D5FE;}
	.st10{fill:url(#SVGID_00000005986321562637356950000006955487568535900047_);}
	.st11{fill:url(#SVGID_00000044172436581947688390000016482940090782907525_);}
</style>
<g id="BG">
</g>
<g id="Display">
</g>
<g id="Numbers">
</g>
<g id="Fonts">
	<path class="st0" d="M194.16,67.67h-31.1c-0.98,0-1.78,0.8-1.78,1.78v3.39c0,0.68-0.73,1.1-1.33,0.77
		c-8.92-5.04-18.99-7.69-29.32-7.69c-32.58,0-59.09,26.14-59.09,58.27c0,32.13,26.51,58.27,59.09,58.27
		c10.34,0,20.41-2.65,29.32-7.69c0.6-0.33,1.33,0.08,1.33,0.77v1.64c0,0.98,0.8,1.78,1.78,1.78h31.1c0.98,0,1.77-0.8,1.77-1.78
		V69.45C195.94,68.47,195.15,67.67,194.16,67.67z M135.96,150.92c-14.94,0-27.1-11.99-27.1-26.72c0-14.74,12.15-26.73,27.1-26.73
		c14.95,0,25.32,11.99,25.32,26.73C161.29,138.93,150.91,150.92,135.96,150.92z M319.39,154.81c-0.89,1.37-2.14,3.28-2.84,4.2
		c-0.02,0.02-0.03,0.04-0.04,0.06c-1.1,1.44-2.26,2.83-3.48,4.16c-0.03,0.04-0.06,0.07-0.09,0.1c-0.49,0.53-1.32,1.38-1.83,1.9
		c-0.09,0.09-0.18,0.19-0.28,0.28c-0.52,0.52-1.06,1.02-1.61,1.51c-0.32,0.29-0.63,0.56-0.96,0.84c-0.22,0.2-0.45,0.39-0.68,0.58
		c-8.54,7.19-19.05,11.92-30.28,13.47c-0.37,0.05-0.75,0.1-1.12,0.14c-0.47,0.06-0.93,0.11-1.39,0.15
		c-0.72,0.07-1.44,0.12-2.17,0.16c-0.26,0.02-0.52,0.03-0.79,0.04c-0.87,0.04-1.75,0.06-2.63,0.06c-32.58,0-59.09-26.14-59.09-58.27
		c0-32.13,26.51-58.27,59.09-58.27c0.88,0,1.76,0.03,2.63,0.06c0.26,0.01,0.53,0.03,0.79,0.04c0.73,0.04,1.45,0.1,2.17,0.17
		c0.47,0.04,0.93,0.1,1.39,0.15c0.37,0.04,0.75,0.09,1.12,0.14c11.23,1.55,21.74,6.28,30.28,13.47c0.22,0.19,0.45,0.38,0.67,0.58
		c0.32,0.29,0.65,0.57,0.97,0.86c0.54,0.49,1.08,0.99,1.6,1.51c0.1,0.1,0.19,0.2,0.29,0.29c0.55,0.56,1.1,1.11,1.63,1.69
		c0.09,0.1,0.19,0.19,0.28,0.29c1.22,1.33,2.38,2.72,3.48,4.15c0.01,0.02,0.03,0.04,0.04,0.06c1.11,1.47,2.15,2.99,3.12,4.56
		c0,0,0,0,0,0c0.41,0.66,0.18,1.52-0.49,1.91l-15.78,9.11l-9.12,5.26c-0.8,0.47-1.84,0.23-2.35-0.54
		c-5.18-7.86-12.37-12.21-20.96-12.21c-8.34,0-15.8,3.74-20.78,9.59c-4.2,4.52-6.76,10.53-6.76,17.13s2.56,12.61,6.76,17.13
		c4.97,5.86,12.44,9.6,20.78,9.6c8.59,0,15.78-4.35,20.96-12.21c0.51-0.78,1.55-1.01,2.35-0.54l24.5,14.14
		C319.67,152.82,319.95,153.96,319.39,154.81z M373.9,34.47v22.71c0,0.98-0.79,1.78-1.78,1.78h-31.1c-0.98,0-1.78-0.8-1.78-1.78
		V34.47c0-0.98,0.79-1.78,1.78-1.78h31.1C373.11,32.69,373.9,33.48,373.9,34.47z M373.9,69.52v107.73c0,0.98-0.79,1.78-1.78,1.78
		h-31.1c-0.98,0-1.78-0.79-1.78-1.78V69.52c0-0.98,0.79-1.78,1.78-1.78h31.1C373.11,67.74,373.9,68.53,373.9,69.52z M500,114.62
		v62.63c0,0.98-0.79,1.78-1.77,1.78h-33.19c-0.98,0-1.78-0.79-1.78-1.78v-60.87c0-4.13-0.23-8.86-1.96-12.69
		c-0.79-1.62-1.85-2.96-3.13-3.96c-2.08-1.63-4.76-2.42-8.21-2.42c-6.4,0-11.36,2.2-12.94,5.75c-1.8,3.85-1.8,9.1-1.8,13.33v60.87
		c0,0.98-0.79,1.78-1.77,1.78h-33.19c-0.98,0-1.78-0.79-1.78-1.78V69.52c0-0.98,0.79-1.78,1.78-1.78h31.1
		c0.98,0,1.78,0.79,1.78,1.78v3c0,0.71,0.8,1.14,1.39,0.73c25.06-17.25,49.47,1.9,49.72,2.1c0.89,0.7,1.73,1.44,2.51,2.21v0
		C498.09,88.97,500,98.22,500,114.62z M35.33,158.3v18.56c0,1.2-0.97,2.17-2.17,2.17H2.17c-1.2,0-2.17-0.97-2.17-2.17V65.38
		C0,30.05,28.15,1.17,63.2,0c1.21-0.04,2.21,0.96,2.21,2.17V33.2c0,1.12-0.86,2.08-1.98,2.15c-15.67,1.02-28.11,14.1-28.11,30.02
		v24.72C18,91.79,4.41,106.43,4.41,124.19S18,156.6,35.33,158.3z M65.41,124.19c0,14.76-11.97,26.73-26.73,26.73
		s-26.73-11.97-26.73-26.73s11.97-26.73,26.73-26.73S65.41,109.43,65.41,124.19z"/>
</g>
</svg>
