<?xml version="1.0" encoding="utf-8"?>
<!-- Generator: Adobe Illustrator 26.0.3, SVG Export Plug-In . SVG Version: 6.00 Build 0)  -->
<svg version="1.1" xmlns="http://www.w3.org/2000/svg" xmlns:xlink="http://www.w3.org/1999/xlink" x="0px" y="0px"
	 viewBox="0 0 500 182.46" style="enable-background:new 0 0 500 182.46;" xml:space="preserve">
<style type="text/css">
	.st0{fill:#FFFFFF;}
	.st1{fill:#21024E;}
	.st2{fill:#6131FA;}
	.st3{fill:url(#SVGID_1_);}
	.st4{fill:#23A9FF;}
	.st5{fill:url(#SVGID_00000158728238723121640390000006701642924568748963_);}
	.st6{fill:#03F3C2;}
	.st7{fill:#54FFEA;}
	.st8{fill:#00EFD5;}
	.st9{fill:#78D5FE;}
	.st10{fill:url(#SVGID_00000031889173598360673180000010144126659014226563_);}
	.st11{fill:url(#SVGID_00000018925484393015409060000002751605430890458767_);}
</style>
<g id="BG">
</g>
<g id="Display">
</g>
<g id="Numbers">
</g>
<g id="Fonts">
	<g>
		<path class="st2" d="M33.16,179.02H2.17c-1.2,0-2.17-0.97-2.17-2.17V65.38C0,30.05,28.15,1.17,63.2,0
			c1.21-0.04,2.21,0.96,2.21,2.17V33.2c0,1.12-0.86,2.08-1.98,2.15c-15.67,1.02-28.11,14.1-28.11,30.02v111.48
			C35.33,178.05,34.36,179.02,33.16,179.02z M195.94,69.45v107.73c0,0.98-0.79,1.78-1.77,1.78h-31.1c-0.98,0-1.78-0.8-1.78-1.78
			v-1.64c0-0.68-0.73-1.1-1.33-0.77c-8.92,5.04-18.98,7.69-29.32,7.69c-32.58,0-59.09-26.14-59.09-58.27
			c0-32.13,26.51-58.27,59.09-58.27c10.33,0,20.41,2.65,29.32,7.69c0.6,0.33,1.33-0.08,1.33-0.77v-3.39c0-0.98,0.8-1.78,1.78-1.78
			h31.1C195.15,67.67,195.94,68.47,195.94,69.45z M161.29,124.2c0-14.74-10.38-26.73-25.32-26.73c-14.94,0-27.1,11.99-27.1,26.73
			c0,14.74,12.15,26.72,27.1,26.72C150.91,150.92,161.29,138.93,161.29,124.2z M318.79,152.31l-24.5-14.14
			c-0.8-0.47-1.84-0.24-2.35,0.54c-5.18,7.86-12.37,12.21-20.96,12.21c-8.34,0-15.8-3.74-20.78-9.6c-4.2-4.52-6.76-10.53-6.76-17.13
			c0-6.6,2.56-12.61,6.76-17.13c4.97-5.86,12.44-9.59,20.78-9.59c8.59,0,15.78,4.35,20.96,12.21c0.51,0.77,1.55,1.01,2.35,0.54
			l9.12-5.26l15.78-9.11c0.67-0.39,0.9-1.26,0.49-1.91c0,0,0,0,0,0c-0.97-1.57-2.01-3.09-3.12-4.56c-0.02-0.01-0.03-0.04-0.04-0.06
			c-1.1-1.44-2.26-2.82-3.48-4.15c-0.09-0.1-0.18-0.2-0.28-0.29c-0.53-0.58-1.08-1.13-1.63-1.69c-0.1-0.1-0.19-0.2-0.29-0.29
			c-0.53-0.51-1.06-1.01-1.6-1.51c-0.32-0.29-0.64-0.57-0.97-0.86c-0.22-0.19-0.45-0.38-0.67-0.58
			c-8.54-7.19-19.06-11.91-30.28-13.47c-0.37-0.05-0.75-0.1-1.12-0.14c-0.47-0.05-0.93-0.11-1.39-0.15
			c-0.72-0.07-1.44-0.12-2.17-0.17c-0.26-0.01-0.52-0.03-0.79-0.04c-0.87-0.04-1.75-0.06-2.63-0.06
			c-32.58,0-59.09,26.14-59.09,58.27c0,32.13,26.51,58.27,59.09,58.27c0.88,0,1.76-0.03,2.63-0.06c0.26-0.01,0.53-0.03,0.79-0.04
			c0.73-0.04,1.45-0.1,2.17-0.16c0.47-0.04,0.93-0.1,1.39-0.15c0.37-0.04,0.75-0.09,1.12-0.14c11.23-1.55,21.74-6.28,30.28-13.47
			c0.23-0.19,0.46-0.38,0.68-0.58c0.32-0.28,0.64-0.56,0.96-0.84c0.54-0.5,1.08-1,1.61-1.51c0.1-0.09,0.19-0.18,0.28-0.28
			c0.51-0.52,1.34-1.37,1.83-1.9c0.03-0.03,0.06-0.06,0.09-0.1c1.22-1.33,2.38-2.72,3.48-4.16c0.01-0.02,0.03-0.04,0.04-0.06
			c0.7-0.92,1.95-2.83,2.84-4.2C319.95,153.96,319.67,152.82,318.79,152.31z M372.13,32.69h-31.1c-0.98,0-1.78,0.79-1.78,1.78v22.71
			c0,0.98,0.79,1.78,1.78,1.78h31.1c0.98,0,1.78-0.8,1.78-1.78V34.47C373.9,33.48,373.11,32.69,372.13,32.69z M372.13,67.74h-31.1
			c-0.98,0-1.78,0.8-1.78,1.78v107.73c0,0.98,0.79,1.78,1.78,1.78h31.1c0.98,0,1.78-0.79,1.78-1.78V69.52
			C373.9,68.53,373.11,67.74,372.13,67.74z M486.74,77.56L486.74,77.56c-0.77-0.77-1.62-1.51-2.51-2.21
			c-0.25-0.2-24.65-19.35-49.72-2.1c-0.59,0.4-1.39-0.02-1.39-0.73v-3c0-0.98-0.79-1.78-1.78-1.78h-31.1
			c-0.98,0-1.78,0.79-1.78,1.78v107.73c0,0.98,0.79,1.78,1.78,1.78h33.19c0.98,0,1.77-0.79,1.77-1.78v-60.87
			c0-4.22,0-9.47,1.8-13.33c1.58-3.54,6.53-5.75,12.94-5.75c3.45,0,6.14,0.79,8.21,2.42c1.28,1,2.33,2.34,3.13,3.96
			c1.73,3.83,1.96,8.56,1.96,12.69v60.87c0,0.98,0.8,1.78,1.78,1.78h33.19c0.98,0,1.77-0.79,1.77-1.78v-62.63
			C500,98.22,498.09,88.97,486.74,77.56z"/>
		<circle class="st4" cx="38.69" cy="124.19" r="26.73"/>
	</g>
</g>
</svg>
